<svg width="40" height="40" viewBox="0 0 40 40" fill="none" xmlns="http://www.w3.org/2000/svg">
<g clip-path="url(#clip0)">
<path d="M39.308 6.23312C38.7374 5.54117 37.8917 5.14461 36.988 5.14461H13.7789C13.3035 5.14461 12.9178 5.53039 12.9178 6.00578C12.9178 6.48117 13.3035 6.86695 13.7789 6.86695H36.9875C37.3806 6.86695 37.7329 7.03101 37.9787 7.32898C38.2285 7.63211 38.3283 8.03171 38.253 8.42054L34.8113 25.63C34.6778 26.245 34.1564 26.6742 33.5432 26.6742H14.4003L6.49676 2.87923C6.06958 1.65892 4.91302 0.839075 3.58849 0.839075C3.5881 0.839075 3.58763 0.839075 3.58716 0.839075C2.46373 0.877825 1.32443 0.877434 1.04537 0.85845C0.767635 0.798138 0.46748 0.875637 0.252246 1.09095C-0.0840819 1.42728 -0.0840819 1.97235 0.252246 2.30868C0.518808 2.57524 0.608808 2.66524 3.61693 2.56102C4.18099 2.56102 4.68521 2.91759 4.86653 3.43508L12.9617 27.8071C13.0788 28.1589 13.4078 28.3965 13.7789 28.3965H33.5431C34.9736 28.3965 36.1869 27.4092 36.4974 25.9817L39.9434 8.75327C40.1174 7.85257 39.8862 6.93414 39.308 6.23312Z" fill="white"/>
<path d="M33.1557 33.1335H17.4822C16.9521 33.1335 16.4539 32.7684 16.2743 32.2559L14.595 27.261C14.4435 26.8102 13.9539 26.5669 13.5043 26.7193C13.0535 26.8705 12.8111 27.3591 12.9626 27.81L14.6454 32.8148C15.0729 34.0355 16.2127 34.8553 17.4821 34.8553H33.1556C33.631 34.8553 34.0168 34.4699 34.0168 33.9945C34.0168 33.5191 33.6311 33.1335 33.1557 33.1335Z" fill="white"/>
<path d="M18.0849 33.1331C16.4228 33.1331 15.0708 34.4856 15.0708 36.1472C15.0708 37.8088 16.4228 39.1613 18.0849 39.1613C19.747 39.1613 21.0991 37.8088 21.0991 36.1472C21.0991 34.4856 19.747 33.1331 18.0849 33.1331ZM18.0849 37.439C17.3727 37.439 16.7931 36.8594 16.7931 36.1472C16.7931 35.435 17.3727 34.8554 18.0849 34.8554C18.7971 34.8554 19.3767 35.435 19.3767 36.1472C19.3767 36.8595 18.7971 37.439 18.0849 37.439Z" fill="white"/>
<path d="M33.1557 33.1331C31.4941 33.1331 30.1416 34.4856 30.1416 36.1472C30.1416 37.8088 31.4941 39.1613 33.1557 39.1613C34.8174 39.1613 36.1699 37.8088 36.1699 36.1472C36.1699 34.4856 34.8174 33.1331 33.1557 33.1331ZM33.1557 37.439C32.4435 37.439 31.8639 36.8594 31.8639 36.1472C31.8639 35.435 32.4435 34.8554 33.1557 34.8554C33.8679 34.8554 34.4475 35.435 34.4475 36.1472C34.4475 36.8595 33.8679 37.439 33.1557 37.439Z" fill="white"/>
</g>
<defs>
<clipPath id="clip0">
<rect width="40" height="40" fill="white"/>
</clipPath>
</defs>
</svg>
