<svg width="43" height="43" viewBox="0 0 43 43" fill="none" xmlns="http://www.w3.org/2000/svg">
<g clip-path="url(#clip0)">
<path d="M36.7028 6.29719C32.642 2.23641 27.2428 0 21.5 0C15.7569 0 10.358 2.23641 6.29719 6.29719C2.23641 10.358 0 15.7569 0 21.5C0 27.2428 2.23641 32.642 6.29719 36.7028C10.358 40.7636 15.7569 43 21.5 43C27.2428 43 32.642 40.7636 36.7028 36.7028C40.7636 32.642 43 27.2428 43 21.5C43 15.7569 40.7636 10.358 36.7028 6.29719ZM10.7785 37.1536C11.6778 31.9761 16.1644 28.1571 21.5 28.1571C26.836 28.1571 31.3222 31.9761 32.2215 37.1536C29.1688 39.2509 25.4755 40.4805 21.5 40.4805C17.5245 40.4805 13.8312 39.2509 10.7785 37.1536ZM14.6638 18.8013C14.6638 15.0316 17.7305 11.9651 21.5 11.9651C25.2695 11.9651 28.3362 15.0319 28.3362 18.8013C28.3362 22.5708 25.2695 25.6375 21.5 25.6375C17.7305 25.6375 14.6638 22.5708 14.6638 18.8013ZM34.4037 35.406C33.7256 32.9957 32.3789 30.8088 30.4912 29.1006C29.3332 28.0524 28.015 27.2254 26.5978 26.6424C29.1593 24.9716 30.8561 22.081 30.8561 18.8013C30.8561 13.6425 26.6588 9.44562 21.5 9.44562C16.3412 9.44562 12.1443 13.6425 12.1443 18.8013C12.1443 22.081 13.841 24.9716 16.4022 26.6424C14.9853 27.2254 13.6668 28.0521 12.5088 29.1003C10.6214 30.8085 9.27437 32.9954 8.59626 35.4056C4.86125 31.937 2.51953 26.9872 2.51953 21.5C2.51953 11.0341 11.0341 2.51953 21.5 2.51953C31.9659 2.51953 40.4805 11.0341 40.4805 21.5C40.4805 26.9875 38.1387 31.9374 34.4037 35.406Z" fill="white"/>
</g>
<defs>
<clipPath id="clip0">
<rect width="43" height="43" fill="white"/>
</clipPath>
</defs>
</svg>
